<?xml version="1.0" encoding="utf-8"?>
<!-- Generator: Adobe Illustrator 17.0.0, SVG Export Plug-In . SVG Version: 6.00 Build 0)  -->
<!DOCTYPE svg PUBLIC "-//W3C//DTD SVG 1.1//EN" "http://www.w3.org/Graphics/SVG/1.1/DTD/svg11.dtd">
<svg version="1.1" id="Layer_1" xmlns="http://www.w3.org/2000/svg" xmlns:xlink="http://www.w3.org/1999/xlink" x="0px" y="0px"
	 width="87.662px" height="314.286px" viewBox="0 0 87.662 314.286" enable-background="new 0 0 87.662 314.286"
	 xml:space="preserve">
<path id="BoldRed" fill="#842500" d="M31.568,22.485c0,0-1.75-0.75-1.75-7.125s1.75-5.625,1.75-5.625s-2.625-6.625,12-7
	c14.042,0.375,13.125,4.625,13.75,7c0,0,1.292,0.5,1.208,4.5c-0.083,4,0.208,6.792-1.375,7.375l1.042,51.083
	c0,0,0.25,12.333,5.583,16.833s12.5,12.917,14.833,19.917c2.333,7,3.417,5.167,3.5,36.583c0.083,31.417,0.417,149.583,0.417,149.583
	s-1.333,13.167-21.667,14.667s-41.083-0.667-41.25-1.75c0,0-11.167-1.75-12.833-14.25c-0.25-8.583,0-147.333,0-147.333
	s-0.667-27.417,2.25-34.833s8.417-16,12.25-18.5c0,0,9.75-8,8.833-13.083C30.526,75.36,31.568,22.485,31.568,22.485z"/>
</svg>
