<?xml version="1.0" encoding="utf-8"?>
<!-- Generator: Adobe Illustrator 17.0.0, SVG Export Plug-In . SVG Version: 6.00 Build 0)  -->
<!DOCTYPE svg PUBLIC "-//W3C//DTD SVG 1.1//EN" "http://www.w3.org/Graphics/SVG/1.1/DTD/svg11.dtd">
<svg version="1.1" id="Layer_1" xmlns="http://www.w3.org/2000/svg" xmlns:xlink="http://www.w3.org/1999/xlink" x="0px" y="0px"
	 width="140px" height="92.857px" viewBox="-6.837 0 140 92.857" enable-background="new -6.837 0 140 92.857" xml:space="preserve"
	>
<g>
	<g>
		<path fill="#B77A32" d="M87.574,4.437c-0.043-0.001-0.081-0.008-0.122-0.01c-0.929-0.081-1.827,0.371-2.31,1.171
			c-0.486,0.8-0.474,1.805,0.036,2.589c4.147,6.48,6.912,12.82,8.495,16.971c0.143,0.384-0.009,0.814-0.365,1.025
			c-0.353,0.206-0.805,0.121-1.067-0.189c-7.696-9.309-16.6-16.098-21.806-19.669c-0.563-0.386-1.258-0.519-1.923-0.371
			c-7.694,1.741-14.243,4.439-18.209,6.315c-0.698,0.329-1.198,0.969-1.354,1.731c-0.152,0.757,0.065,1.543,0.579,2.12
			c7.648,8.519,12.868,19.665,15.27,25.459c0.153,0.372,0.022,0.803-0.312,1.021c-0.332,0.222-0.779,0.174-1.059-0.111
			C58.1,37.068,46.522,25.698,38.526,20.845c-0.814-0.494-1.843-0.472-2.632,0.056c-5.356,3.579-10.341,7.323-13.989,12.127
			c-0.002,0.001-0.002,0.001-0.005,0.003c-0.957,0.518-0.97,1.853-0.265,2.778c6.216,8.125,10.038,16.747,12.043,22.005
			c0.143,0.384-0.048,0.735-0.406,0.943c-0.353,0.206-0.825,0.089-1.089-0.229c-4.973-6.018-10.469-11.002-15.137-14.73
			c-0.678-0.543-1.562-0.776-2.42-0.624c-0.857,0.149-1.608,0.656-2.061,1.399C3.639,59.174,2.61,71.151,7.491,80.172
			c10.382,19.19,36.647,7.921,67.527-8.786s54.681-32.525,44.299-51.715C114.849,11.397,105.285,6.052,87.574,4.437z"/>
	</g>
</g>
</svg>
