<?xml version="1.0" encoding="utf-8"?>
<!-- Generator: Adobe Illustrator 17.0.0, SVG Export Plug-In . SVG Version: 6.00 Build 0)  -->
<!DOCTYPE svg PUBLIC "-//W3C//DTD SVG 1.1//EN" "http://www.w3.org/Graphics/SVG/1.1/DTD/svg11.dtd">
<svg version="1.1" id="Layer_1" xmlns="http://www.w3.org/2000/svg" xmlns:xlink="http://www.w3.org/1999/xlink" x="0px" y="0px"
	 width="137px" height="102.597px" viewBox="-15.902 0 137 102.597" enable-background="new -15.902 0 137 102.597"
	 xml:space="preserve">
<g>
	<path fill="#90C936" d="M78.441,62.566c-7.204,5.081-7.051,14.993-7.051,15.088l0.05,2.233l-2.216-0.211
		c-20.665-1.99-26.282,11.356-26.512,11.935l-0.682,1.707l-1.764-0.561c-9.421-3.048-16.099-4.747-20.881-5.659
		c8.752,7.795,20.269,12.561,32.911,12.561c23.617,0,43.333-16.514,48.338-38.618C90.943,58.531,83.486,59.005,78.441,62.566z"/>
	<path fill="#90C936" d="M73.653,9.17c-2.612,3.24-3.877,6.609-3.671,10.085c0.593,10.224,12.925,18.435,13.055,18.517l-1.757,3.333
		c-4.353-1.782-8.413-1.91-12.056-0.369c-7.221,3.027-10.709,11.461-10.745,11.546l-3.65,9.01v-9.72c0-4.862-1.235-8.113-3.684-9.66
		c-4.745-3.001-12.901,0.799-12.982,0.839l-2.11,1.007L35.5,41.475c-2.466-10.358-6.918-16.981-13.248-19.687
		c-2.033-0.872-4.127-1.195-6.183-1.286c-3.551,4.1-6.416,8.8-8.406,13.95C5.611,39.76,4.489,45.538,4.489,51.57
		c0,11.88,4.379,22.726,11.58,31.056c5.055,0.491,12.616,2.158,24.126,5.83c2.273-3.86,9.567-13.273,26.525-12.388
		c0.326-3.602,1.817-11.011,8.243-15.57c5.724-4.056,13.854-4.722,24.176-2.111c0.333-2.23,0.546-4.499,0.546-6.817
		C99.685,33.053,89.093,17.038,73.653,9.17z"/>
	<path fill="#90C936" d="M47.726,23.95c0.283-0.173,0.599-0.346,0.952-0.491c1.654-0.679,3.72-0.699,6.163-0.06
		c-1.98-2.682-3.907-6.454-3.481-10.601c0.249-2.499,1.361-4.812,3.228-6.942c-0.845-0.045-1.67-0.136-2.536-0.136
		c-4.928,0-9.67,0.772-14.146,2.163C40.286,9.111,44.678,12.822,47.726,23.95z"/>
	<path fill="#90C936" d="M23.727,18.301c7.025,2.992,12.04,9.774,14.915,20.174c3.298-1.166,9.75-2.782,14.525,0.225
		c2.329,1.472,3.917,3.787,4.762,6.918c2.08-2.988,5.318-6.483,9.813-8.384c2.283-0.952,4.662-1.448,7.111-1.371
		c-3.894-3.85-8.269-9.637-8.662-16.382c-0.253-4.196,1.095-8.186,3.917-11.953c-3.81-1.569-7.893-2.617-12.129-3.155
		c-2.373,2.136-3.81,4.431-4.073,6.921c-0.672,6.582,6.319,12.466,6.393,12.526l8.469,7.032l-9.837-4.928
		c-5.071-2.541-7.787-2.436-9.168-1.915c-1.121,0.424-1.454,1.191-1.461,1.223l-1.481,3.71l-0.925-3.858
		C42.163,9.291,36.638,8.033,36.585,8.021l-0.486-1.248c-6.276,2.243-11.97,5.725-16.715,10.219
		C20.825,17.259,22.279,17.683,23.727,18.301z"/>
</g>
</svg>
