<?xml version="1.0" encoding="utf-8"?>
<!-- Generator: Adobe Illustrator 17.0.0, SVG Export Plug-In . SVG Version: 6.00 Build 0)  -->
<!DOCTYPE svg PUBLIC "-//W3C//DTD SVG 1.1//EN" "http://www.w3.org/Graphics/SVG/1.1/DTD/svg11.dtd">
<svg version="1.1" id="Layer_1" xmlns="http://www.w3.org/2000/svg" xmlns:xlink="http://www.w3.org/1999/xlink" x="0px" y="0px"
	 width="135px" height="103.247px" viewBox="-13.902 0 135 103.247" enable-background="new -13.902 0 135 103.247"
	 xml:space="preserve">
<g>
	<g>
		<path fill="#EDC51D" d="M95.013,25.205c0.41-0.068,0.819-0.102,1.229-0.102l0,0l0,0c0.421,0,0.842,0.034,1.24,0.102L54.627,6.702
			c-1.32-0.569-2.845-0.387-3.994,0.489L8.096,39.555C8.358,39.475,95.013,25.205,95.013,25.205z"/>
		<path fill="#EDC51D" d="M92.543,69.301c2.89,0,5.553,1.047,7.681,2.822V32.625c0-1.9-1.309-3.448-3.027-3.869
			c-0.307-0.08-0.626-0.114-0.944-0.114c-0.216,0-0.432,0.023-0.66,0.057L10.907,42.616l-1.445,0.239
			c-1.923,0.319-3.334,1.98-3.334,3.926v24.568c1.605-1.297,3.607-2.06,5.769-2.06c5.326,0,9.638,4.631,9.638,10.355
			s-4.313,10.355-9.638,10.355c-2.162,0-4.154-0.762-5.769-2.06v7.294c0,2.23,1.821,3.983,3.971,3.983
			c0.216,0,0.432-0.023,0.66-0.057l70.098-11.527c-0.546-1.514-0.842-3.152-0.842-4.871C80.003,75.332,85.613,69.301,92.543,69.301z
			 M52.692,74.831c-4.29,0-7.761-3.733-7.761-8.341s3.471-8.341,7.761-8.341s7.761,3.732,7.761,8.341S56.982,74.831,52.692,74.831z
			 M77.59,55.668c-1.343,0-2.606-0.364-3.71-1.013c-2.412-1.411-4.051-4.165-4.051-7.328c0-4.609,3.471-8.341,7.761-8.341
			c2.913,0,5.439,1.718,6.771,4.267c0.626,1.206,0.99,2.595,0.99,4.074C85.351,51.936,81.881,55.668,77.59,55.668z"/>
	</g>
</g>
</svg>
