<?xml version="1.0" encoding="utf-8"?>
<!-- Generator: Adobe Illustrator 17.0.0, SVG Export Plug-In . SVG Version: 6.00 Build 0)  -->
<!DOCTYPE svg PUBLIC "-//W3C//DTD SVG 1.1//EN" "http://www.w3.org/Graphics/SVG/1.1/DTD/svg11.dtd">
<svg version="1.1" id="Layer_1" xmlns="http://www.w3.org/2000/svg" xmlns:xlink="http://www.w3.org/1999/xlink" x="0px" y="0px"
	 width="133.766px" height="92.857px" viewBox="0 0 133.766 92.857" enable-background="new 0 0 133.766 92.857"
	 xml:space="preserve">
<g>
	<g>
		<path fill="#829392" d="M112.318,62.984c-6.442,11.286-21.264,10.613-34.198,10.462c-20.669-0.253-49.785,2.464-62.824-9.345
			C-4.272,68.69,4.133,74.281,24.44,77.303c10.699,14.332,73.564,14.343,84.269,0C134.015,73.538,135.903,67.12,112.318,62.984z"/>
		<path fill="#BC4F04" d="M72.004,67.993c21.323,0,39.554,2.838,37.844-21.129c-4.667,9.512-10.987,16.489-21.695,16.489
			c-22.769,0-34.034-35.685,4.25-45.756c-5.892-3.762-12.891-5.946-20.399-5.946c-20.951,0-57.479,16.987-57.479,37.941
			C14.525,70.546,51.052,67.993,72.004,67.993z"/>
		<path fill="#BC4F04" d="M77.247,53.437c6.024,6.021,15.792,6.021,21.819,0c4.977-4.977,10.942-17.609,9.482-25.249
			c0.215-0.215,7.99-7.979,8.192-8.208c4.198,5.039,11.534-1.724,6.956-6.304c-1.301-1.298-3.1-1.118-4.807-1.118l0,0
			c-1.147,0-1.034-0.964-0.991-1.244c0.207-1.384,0.221-2.903-0.856-4.309c-3.641-4.745-11.755,2.424-6.328,6.951
			c-0.234,0.21-7.987,7.966-8.208,8.189c-7.643-1.465-20.275,4.5-25.249,9.479C71.22,37.643,71.22,47.411,77.247,53.437z"/>
	</g>
</g>
</svg>
