<?xml version="1.0" encoding="utf-8"?>
<!-- Generator: Adobe Illustrator 17.0.0, SVG Export Plug-In . SVG Version: 6.00 Build 0)  -->
<!DOCTYPE svg PUBLIC "-//W3C//DTD SVG 1.1//EN" "http://www.w3.org/Graphics/SVG/1.1/DTD/svg11.dtd">
<svg version="1.1" id="Layer_1" xmlns="http://www.w3.org/2000/svg" xmlns:xlink="http://www.w3.org/1999/xlink" x="0px" y="0px"
	 width="141.558px" height="88.961px" viewBox="0 0 141.558 88.961" enable-background="new 0 0 141.558 88.961"
	 xml:space="preserve">
<g>
	<path fill="#E57200" d="M137.251,33.303c-1.282-1.72-7.885-10.375-11.851-11.632c-1.46-0.459-3.841-0.165-6.856,0.198
		c-3.072,0.376-6.794,0.831-9.676,0.43c-0.802-1.72-1.865-3.362-3.134-4.908c1.083-1.046,2.77-2.27,5.111-3.263
		c3.635-1.538,12.967-4.156,21.097,4.817c0.575,0.641,1.559,0.691,2.192,0.112c0.637-0.579,0.686-1.563,0.103-2.196
		c-10.081-11.14-21.961-6.848-25.36-5.264c-1.898,0.885-3.821,2.121-5.26,3.502C96.757,8.447,85.584,4.114,72.952,4.114
		c-0.521,0-1.038,0.017-1.555,0.029c-0.517-0.012-1.034-0.029-1.555-0.029c-12.628,0-23.801,4.333-30.665,10.987
		c-1.447-1.381-3.366-2.617-5.268-3.502c-3.399-1.58-15.266-5.872-25.356,5.268c-0.579,0.633-0.529,1.621,0.108,2.196
		c0.637,0.579,1.621,0.529,2.196-0.112c8.125-8.973,17.458-6.355,21.093-4.817c2.345,0.992,4.032,2.216,5.111,3.263
		c-1.265,1.542-2.32,3.184-3.13,4.904c-2.882,0.401-6.595-0.054-9.676-0.43c-3.014-0.364-5.4-0.657-6.856-0.198
		c-3.97,1.257-10.569,9.912-11.851,11.632c-0.517,0.691-0.372,1.662,0.318,2.175c0.277,0.207,0.604,0.306,0.926,0.306
		c0.476,0,0.943-0.215,1.249-0.624c2.741-3.676,7.96-9.783,10.296-10.524c0.815-0.256,3.325,0.05,5.541,0.323
		c2.762,0.335,5.946,0.715,8.865,0.571c-0.211,0.748-0.376,1.509-0.492,2.278c-5.462-0.281-10.135,1.137-13.914,4.218
		C10.108,38.74,9.165,50.889,9.124,51.41c-0.058,0.856,0.587,1.604,1.443,1.654c0.037,0.004,0.074,0.004,0.112,0.004
		c0.806,0,1.489-0.616,1.551-1.443c0.008-0.112,0.901-11.359,8.092-17.21c3.147-2.564,7.092-3.738,11.748-3.511
		c0.025,1.298,0.182,2.576,0.467,3.825C27.678,37.64,5.241,52.597,34.393,65.51c0.194,5.822,1.943,22.73,26.877,20.013
		c-7.447-7.182-10.656-12.637-10.656-12.637s6.703-1.943,16.222,1.757c2.138-3.11-2.138-13.211-6.992-15.357
		c-4.854-2.138-6.608-1.943-22.54-2.324c-13.765-1.431-5.863-14.919-3.511-18.496C38.61,49.185,52.93,56.963,69.85,56.963
		c0.521,0,1.038-0.017,1.555-0.033c0.517,0.017,1.034,0.033,1.555,0.033c16.92,0,31.24-7.778,36.061-18.496
		c2.349,3.573,10.251,17.065-3.515,18.496c-15.936,0.389-17.677,0.194-22.54,2.324c-4.859,2.138-9.13,12.248-6.992,15.357
		c9.527-3.701,16.226-1.757,16.226-1.757s-3.2,5.442-10.652,12.637c24.93,2.717,26.687-14.191,26.877-20.013
		c29.148-12.914,6.715-27.87,1.848-30.777c0.281-1.249,0.434-2.522,0.467-3.825c4.652-0.232,8.597,0.947,11.743,3.511
		c7.191,5.851,8.084,17.098,8.092,17.21c0.066,0.81,0.748,1.443,1.551,1.443c0.041,0,0.083,0,0.112-0.004
		c0.856-0.062,1.501-0.794,1.447-1.65c-0.041-0.517-0.976-12.67-9.217-19.385c-3.779-3.081-8.452-4.499-13.914-4.218
		c-0.112-0.773-0.281-1.53-0.484-2.283c2.915,0.145,6.103-0.236,8.87-0.571c2.216-0.273,4.73-0.579,5.541-0.323
		c2.332,0.74,7.559,6.848,10.296,10.524c0.298,0.413,0.773,0.624,1.249,0.624c0.323,0,0.649-0.099,0.93-0.306
		C137.627,34.965,137.767,33.993,137.251,33.303z"/>
</g>
</svg>
