<?xml version="1.0" encoding="utf-8"?>
<!-- Generator: Adobe Illustrator 17.0.0, SVG Export Plug-In . SVG Version: 6.00 Build 0)  -->
<!DOCTYPE svg PUBLIC "-//W3C//DTD SVG 1.1//EN" "http://www.w3.org/Graphics/SVG/1.1/DTD/svg11.dtd">
<svg version="1.1" id="Layer_1" xmlns="http://www.w3.org/2000/svg" xmlns:xlink="http://www.w3.org/1999/xlink" x="0px" y="0px"
	 width="134px" height="102.25px" viewBox="-15.875 0 134 102.25" enable-background="new -15.875 0 134 102.25"
	 xml:space="preserve">
<g>
	<g id="Layer_1_1_">
		<g>
			<path fill="#E5A739" d="M77.01,40.118c-1.849-4.13-5.084-7.846-9.012-10.324c-2.31,5.575-8.55,9.499-15.482,9.499
				c-7.163,0-13.171-3.924-15.482-9.499c-3.928,2.684-7.163,6.195-9.012,10.531c-8.088,1.651-13.865,8.053-13.865,15.693
				c0,8.879,8.088,15.899,17.792,15.899c3.004,0,6.008-0.826,8.549-2.065c3.698,1.651,7.625,2.684,12.016,2.684h0.231
				c4.39,0,8.318-1.033,12.016-2.684c2.542,1.239,5.314,1.858,8.549,1.858c9.936,0,17.792-7.227,17.792-15.899
				C91.105,48.171,85.097,41.77,77.01,40.118z"/>
			<path fill="#B77B1C" d="M64.764,74.997c-3.697,1.133-7.857,1.889-12.016,1.889c-4.159,0-8.318-0.755-12.016-2.078
				c-2.542,0.945-5.545,1.323-8.549,1.323c-2.31,0-4.622-0.378-6.932-0.756l5.314,13.224c2.08,5.29,8.088,8.69,14.789,8.69h14.557
				c6.702,0,12.709-3.59,14.789-8.69l5.314-13.224c-2.08,0.567-4.39,0.756-6.932,0.756C70.31,76.32,67.305,75.753,64.764,74.997z"/>
			<path fill="#E51B00" d="M52.285,22.154c-2.08,0-3.928-1.651-3.928-3.511c0.231-1.445-0.231-2.478-0.462-3.511
				c-3.928,1.651-6.702,5.162-6.702,9.292c0,5.575,5.084,10.118,11.322,10.118c6.239,0,11.323-4.542,11.323-10.118
				c0-4.749-3.466-8.673-8.318-9.705c0.231,1.239,0.462,2.478,0.462,3.924C56.215,20.501,54.597,22.154,52.285,22.154z"/>
			<path fill="#3D2515" d="M41.425,7.286c0,0,9.705,2.271,9.705,11.15c0,0.62,0.694,1.239,1.386,1.239
				c0.694,0,1.386-0.62,1.386-1.239c0-10.737-11.553-13.422-11.553-13.422c-0.694-0.207-1.386,0.207-1.618,0.826
				C40.271,6.667,40.732,7.286,41.425,7.286z"/>
		</g>
	</g>
</g>
</svg>
