<?xml version="1.0" encoding="utf-8"?>
<!-- Generator: Adobe Illustrator 17.0.0, SVG Export Plug-In . SVG Version: 6.00 Build 0)  -->
<!DOCTYPE svg PUBLIC "-//W3C//DTD SVG 1.1//EN" "http://www.w3.org/Graphics/SVG/1.1/DTD/svg11.dtd">
<svg version="1.1" id="Layer_1" xmlns="http://www.w3.org/2000/svg" xmlns:xlink="http://www.w3.org/1999/xlink" x="0px" y="0px"
	 width="98.701px" height="279.221px" viewBox="0 0 98.701 279.221" enable-background="new 0 0 98.701 279.221"
	 xml:space="preserve">
<path fill="#E58423" d="M36.87,28.745c0,0-3.5-9.167,0-15.333c-0.333-5-0.833-8,4-10.167c0,0,11.729-0.771,17.354,0
	s4.125,4.271,4.438,9.833c0,0,2.875,5.25,0,15.438l1.313,51.937c0,0-0.25,17.563,8.063,23s19.625,12.5,21.5,23.375
	c0.625,10.5-0.625,119.25-1,120.75s-0.281,7.125,1.172,10.625c1.453,3.5,3.328,14.875-5.297,15.375
	c-5.625,1-38.375,3.25-39.875,2.25c0,0-35.875,1-42.75-4.5c0,0-3.375-5.75,0-14.25c1.375-4.625,1.25-9.625,0.75-15.5
	S4.912,135.453,4.912,135.453s-1.25-18.125,16.125-28.5c10.125-5.5,11.875-9.25,13.75-23.5C35.287,68.828,36.87,28.745,36.87,28.745
	z"/>
</svg>
