<?xml version="1.0" encoding="utf-8"?>
<!-- Generator: Adobe Illustrator 17.0.0, SVG Export Plug-In . SVG Version: 6.00 Build 0)  -->
<!DOCTYPE svg PUBLIC "-//W3C//DTD SVG 1.1//EN" "http://www.w3.org/Graphics/SVG/1.1/DTD/svg11.dtd">
<svg version="1.1" id="Layer_1" xmlns="http://www.w3.org/2000/svg" xmlns:xlink="http://www.w3.org/1999/xlink" x="0px" y="0px"
	 width="83.117px" height="318.182px" viewBox="0 0 83.117 318.182" enable-background="new 0 0 83.117 318.182"
	 xml:space="preserve">
<path id="DryWhite" fill="#7E875A" d="M30.293,12.267c0,0-2.542-5.688,5.792-7.021s13.063-0.01,13.063-0.01s5.458,1.198,4.781,6.995
	c0,0,0.937,0.631,0.865,2.203c-0.067,1.457,0.031,7.094,0.031,7.094s0.01,2.844-0.844,2.844c-1.537,0,1.323,51.188,1.323,51.188
	s1.698,18,7.698,21.667c2.75,2.917,14.229,14.583,15.313,32.75s1.573,163.583-0.677,173.958c-3.25,4.875-4.984,9.375-32.609,10.625
	c-27.25-0.875-32.742-5.75-36.367-9c-3-3.25-2.246-14-2.246-16.5s-0.44-153.013-0.081-157.25c0.355-4.196,2.377-22,16.877-35
	c3.25-4,4.833-1.75,6.708-24.625l0.875-47.625c0,0-1.125-0.625-1.375-3.625s-0.25-6.375-0.25-6.375S29.168,13.85,30.293,12.267z"/>
</svg>
