<?xml version="1.0" encoding="utf-8"?>
<!-- Generator: Adobe Illustrator 17.0.0, SVG Export Plug-In . SVG Version: 6.00 Build 0)  -->
<!DOCTYPE svg PUBLIC "-//W3C//DTD SVG 1.1//EN" "http://www.w3.org/Graphics/SVG/1.1/DTD/svg11.dtd">
<svg version="1.1" id="Layer_1" xmlns="http://www.w3.org/2000/svg" xmlns:xlink="http://www.w3.org/1999/xlink" x="0px" y="0px"
	 width="147px" height="112.338px" viewBox="-8.837 0 147 112.338" enable-background="new -8.837 0 147 112.338"
	 xml:space="preserve">
<g>
	<g>
		<path fill="#6CB7A4" d="M38.77,45.554C18.839,54.373,5.766,73.121,5.766,73.121c0.106,0.12,9.906,11.338,18.018,8.382l0.276,2.003
			c-1.022,0.368-2.067,0.535-3.126,0.535c-5.605,0-11.457-4.641-14.483-7.463c4.282,5.354,15.856,18.522,30.901,25.673
			C48.581,83.11,40.525,51.752,38.77,45.554z M26.597,74.928c-2.761,0-5.009-2.245-5.009-5.009c0-2.766,2.248-5.006,5.009-5.006
			c2.766,0,5.011,2.24,5.011,5.006C31.608,72.683,29.363,74.928,26.597,74.928z"/>
		<path fill="#6CB7A4" d="M103.426,66.947c-8.775-9.669-26.258-25.539-46.384-25.539c-5.624,0-11.042,1.251-16.123,3.251
			c1.721,5.841,10.382,38.088-1.443,58.54c5.493,2.343,11.405,3.836,17.566,3.836c21.333,0,39.676-17.82,47.866-27.191l16.173,9.232
			V59.368L103.426,66.947z"/>
		<path fill="#6CB7A4" d="M63.604,17.97c1.006,1.206,2.07,2.326,3.162,3.446c1.056,1.106,2.011,2.187,2.844,3.321
			c0.805,1.15,1.348,2.384,1.462,3.568c0.15,1.181-0.209,2.398-0.953,3.571c-0.741,1.173-1.789,2.237-2.947,3.242l0.098,0.201
			c1.543-0.381,2.975-1.181,4.173-2.359c1.198-1.156,2.075-2.955,1.95-4.833c-0.126-1.878-1.101-3.44-2.17-4.66
			c-1.064-1.248-2.379-2.204-3.722-2.981c-1.287-0.758-2.482-1.711-3.329-2.939c-0.849-1.223-1.156-2.73-1.064-3.992
			c0.039-0.638,0.173-1.24,0.362-1.855c0.212-0.607,0.521-1.187,0.903-1.772c0.763-1.159,1.791-2.212,2.897-3.29l-0.098-0.195
			c-1.552,0.368-2.961,1.223-4.117,2.429c-1.136,1.187-2,2.972-1.749,4.763C61.532,15.449,62.646,16.781,63.604,17.97z"/>
		<path fill="#6CB7A4" d="M81.399,17.97c0.997,1.206,2.059,2.326,3.153,3.446c1.05,1.106,2.022,2.187,2.847,3.321
			c0.8,1.15,1.337,2.384,1.462,3.568c0.148,1.181-0.212,2.398-0.958,3.571c-0.738,1.173-1.786,2.237-2.934,3.242l0.089,0.201
			c1.549-0.381,2.978-1.181,4.17-2.359c1.204-1.156,2.084-2.955,1.95-4.833c-0.123-1.878-1.109-3.44-2.164-4.66
			c-1.07-1.248-2.39-2.204-3.727-2.981c-1.281-0.758-2.493-1.711-3.323-2.939c-0.855-1.223-1.167-2.73-1.07-3.992
			c0.045-0.638,0.176-1.24,0.357-1.855c0.212-0.607,0.527-1.187,0.905-1.772c0.763-1.159,1.797-2.212,2.906-3.29l-0.098-0.195
			c-1.563,0.368-2.972,1.223-4.134,2.429c-1.12,1.187-1.989,2.972-1.741,4.763C79.318,15.449,80.433,16.781,81.399,17.97z"/>
		<path fill="#6CB7A4" d="M44.197,17.97c0.994,1.206,2.053,2.326,3.151,3.446c1.05,1.106,2.011,2.187,2.839,3.321
			c0.819,1.15,1.34,2.384,1.462,3.568c0.15,1.181-0.206,2.398-0.956,3.571c-0.733,1.173-1.785,2.237-2.936,3.242l0.1,0.201
			c1.538-0.381,2.964-1.181,4.162-2.359c1.203-1.156,2.081-2.955,1.955-4.833c-0.125-1.878-1.103-3.44-2.176-4.66
			c-1.067-1.248-2.384-2.204-3.719-2.981c-1.287-0.758-2.487-1.711-3.329-2.939c-0.852-1.223-1.156-2.73-1.064-3.992
			c0.033-0.638,0.167-1.24,0.362-1.855c0.212-0.607,0.524-1.187,0.903-1.772c0.758-1.159,1.789-2.212,2.906-3.29l-0.1-0.195
			c-1.56,0.368-2.969,1.223-4.123,2.429c-1.128,1.187-2,2.972-1.755,4.763C42.102,15.449,43.216,16.781,44.197,17.97z"/>
	</g>
</g>
</svg>
