<?xml version="1.0" encoding="utf-8"?>
<!-- Generator: Adobe Illustrator 17.0.0, SVG Export Plug-In . SVG Version: 6.00 Build 0)  -->
<!DOCTYPE svg PUBLIC "-//W3C//DTD SVG 1.1//EN" "http://www.w3.org/Graphics/SVG/1.1/DTD/svg11.dtd">
<svg version="1.1" id="Layer_1" xmlns="http://www.w3.org/2000/svg" xmlns:xlink="http://www.w3.org/1999/xlink" x="0px" y="0px"
	 width="142.857px" height="90.26px" viewBox="0 0 142.857 90.26" enable-background="new 0 0 142.857 90.26" xml:space="preserve">
<g>
	<path fill="#D39C00" d="M44.51,69.852l-7.707,4.084v-7.323V46.532c-3.89-0.813-7.556-1.761-10.926-2.845
		c-9.79-3.151-15.63-6.945-19.008-10.727C4.726,43.863,7.726,54.207,9.816,65.67c1.22,6.694,10.528,12.817,26.624,16.444
		c0.106,0.023,0.215,0.009,0.311-0.042l28.235-14.96v18.05c0,0.244,0.193,0.445,0.438,0.453c2.21,0.076,4.454,0.117,6.727,0.117
		c34.426,0,60.348-9.162,62.335-20.062c2.09-11.463,5.09-21.807,2.946-32.71c-3.378,3.782-9.218,7.576-19.008,10.727
		c-12.464,4.011-28.897,6.22-46.272,6.22c-2.41,0-4.799-0.047-7.165-0.13v0.873l-0.177,8.697L44.51,69.852z"/>
	<path fill="#D39C00" d="M63.37,28.876l8.78-4.153l-7.165,19.584v0.345c2.352,0.086,4.741,0.132,7.165,0.132
		c34.426,0,62.335-8.982,62.335-20.062S106.577,4.661,72.15,4.661S9.816,13.643,9.816,24.723c0,6.895,10.807,12.976,27.265,16.587
		l18.691-8.841c0,0.005-0.001,0.01-0.001,0.015L63.37,28.876z"/>
</g>
</svg>
