<?xml version="1.0" encoding="utf-8"?>
<!-- Generator: Adobe Illustrator 17.0.0, SVG Export Plug-In . SVG Version: 6.00 Build 0)  -->
<!DOCTYPE svg PUBLIC "-//W3C//DTD SVG 1.1//EN" "http://www.w3.org/Graphics/SVG/1.1/DTD/svg11.dtd">
<svg version="1.1" id="Layer_1" xmlns="http://www.w3.org/2000/svg" xmlns:xlink="http://www.w3.org/1999/xlink" x="0px" y="0px"
	 width="142px" height="105.844px" viewBox="-20.928 0 142 105.844" enable-background="new -20.928 0 142 105.844"
	 xml:space="preserve">
<g>
	<g>
		<path fill="#492B0F" d="M56.887,44.619l-3.403,3.713l5.765,5.765l2.46-2.206c-0.321-0.445-0.653-0.859-0.964-1.331
			c-0.554-0.841-1.09-1.682-1.622-2.515C58.368,46.863,57.633,45.711,56.887,44.619z"/>
		<path fill="#492B0F" d="M36.622,66.73c1.632,1.026,3.082,2.311,4.282,3.812l2.849-2.555l-4.322-4.322L36.622,66.73z"/>
		<path fill="#492B0F" d="M11.264,97.118l4.332-3.883c-0.573-0.57-1.092-1.19-1.581-1.835l-4.033,4.4
			C2.976,103.445,3.551,104.035,11.264,97.118z"/>
		<path fill="#492B0F" d="M70.911,35.598c0.59,2.05,1.237,4.269,2.161,6.102l19.839-17.788c7.715-6.917,11.686-14.807,8.87-17.622
			c-2.816-2.816-10.778,1.1-17.785,8.747L69.378,30.988c0.123,0.298,0.254,0.582,0.369,0.894
			C70.171,33.029,70.53,34.278,70.911,35.598z"/>
		<path fill="#F45B25" d="M16.839,92.122c2.774,2.725,6.573,4.412,10.76,4.412c8.479,0,15.376-6.897,15.376-15.376
			c0-3.587-1.245-6.883-3.311-9.502c-1.157-1.466-2.576-2.711-4.186-3.677c-2.307-1.385-4.997-2.198-7.879-2.198
			c-8.479,0-15.376,6.897-15.376,15.376c0,3.361,1.097,6.463,2.932,8.996C15.665,90.855,16.222,91.517,16.839,92.122z"/>
		<path fill="#377512" d="M40.555,62.44l4.438,4.438l8.404,8.404c1.704,1.704,3.938,2.557,6.17,2.557
			c2.234,0,4.466-0.853,6.17-2.557c3.408-3.408,3.408-8.933,0-12.342l-7.731-7.731l-5.648-5.648l-9.001-9.001
			c-1.704-1.704-3.938-2.557-6.17-2.557c-2.234,0-4.466,0.853-6.17,2.557c-3.408,3.408-3.408,8.933,0,12.342L40.555,62.44z"/>
		<path fill="#BAA6AF" d="M42.122,34.607c0.096,0,0.196-0.003,0.299-0.012c0.51-0.038,1.007-0.058,1.486-0.058
			c6.878,0,10.708,3.885,14.128,8.827c1.373,1.985,2.683,4.136,4.096,6.28c0.261,0.397,0.544,0.755,0.815,1.135
			c4.643,6.544,10.54,10.592,18.817,11.244c0.105,0.008,0.208,0.012,0.309,0.012c3.966,0,3.831-6.337-0.309-6.661
			c-2.153-0.17-4.008-0.713-5.662-1.513c3.441,0.858,7.254,0.943,10.926,0.957c0.005,0,0.012,0,0.017,0
			c4.272,0,4.264-6.631-0.017-6.649c-0.07,0-0.141,0-0.211,0c-1.064,0-2.186,0.031-3.323,0.031c-3.524,0-7.196-0.296-9.759-2.723
			c-0.771-0.73-1.4-1.634-1.94-2.631c-1.71-3.16-2.477-7.324-3.605-10.393c-0.015-0.04-0.031-0.076-0.047-0.116
			c-2.899-7.743-8.719-10.801-16.525-12.583c-0.288-0.065-0.564-0.096-0.826-0.096c-3.564,0-4.832,5.62-0.941,6.508
			c4.594,1.049,8.82,2.138,11.23,6.488c0.879,1.588,1.539,3.303,2.139,5.053c0.314,0.916,0.617,1.837,0.916,2.761
			c-0.474-0.736-0.956-1.463-1.448-2.181c-0.08-0.118-0.156-0.239-0.236-0.357c-4.48-6.461-10.439-10.06-18.089-10.06
			c-0.635,0-1.282,0.025-1.94,0.075C38.276,28.262,38.146,34.607,42.122,34.607z"/>
	</g>
</g>
</svg>
