<?xml version="1.0" encoding="utf-8"?>
<!-- Generator: Adobe Illustrator 17.0.0, SVG Export Plug-In . SVG Version: 6.00 Build 0)  -->
<!DOCTYPE svg PUBLIC "-//W3C//DTD SVG 1.1//EN" "http://www.w3.org/Graphics/SVG/1.1/DTD/svg11.dtd">
<svg version="1.1" id="Layer_1" xmlns="http://www.w3.org/2000/svg" xmlns:xlink="http://www.w3.org/1999/xlink" x="0px" y="0px"
	 width="90.909px" height="293.507px" viewBox="0 0 90.909 293.507" enable-background="new 0 0 90.909 293.507"
	 xml:space="preserve">
<path id="LightRed" fill="#F04E26" d="M33.606,21.203c0,0-1.333-2-1.5-5.333c-0.167-3.333,0.5-5.167,1.5-5.5
	c0,0-0.917-4.333,1.917-5s12.083-3,22.75,0.5c0.833,0.917,0.667,3.417,0.583,3.667c-0.083,0.25,1.667,0.25,1.5,5.667
	c-0.167,5.417-1.833,6.167-1.75,6c0.083-0.167,1,41.917,1,41.917s0.417,25.583,9.75,49s16.333,37.583,16.583,58.417
	s0.75,110.583,0.75,110.583s1.917,8-15.417,8.917c-17.333,0.917-47.75,2-60.75-2.5c0,0-4.333-0.417-4.833-9.083
	s0.417-105.917,0.417-105.917s0.333-23.5,8.5-40.25s15.667-36.75,16.917-53.75S33.606,21.203,33.606,21.203z"/>
</svg>
