<?xml version="1.0" encoding="utf-8"?>
<!-- Generator: Adobe Illustrator 17.0.0, SVG Export Plug-In . SVG Version: 6.00 Build 0)  -->
<!DOCTYPE svg PUBLIC "-//W3C//DTD SVG 1.1//EN" "http://www.w3.org/Graphics/SVG/1.1/DTD/svg11.dtd">
<svg version="1.1" id="Layer_1" xmlns="http://www.w3.org/2000/svg" xmlns:xlink="http://www.w3.org/1999/xlink" x="0px" y="0px"
	 width="80.519px" height="315.584px" viewBox="0 0 80.519 315.584" enable-background="new 0 0 80.519 315.584"
	 xml:space="preserve">
<path id="MediumRed" fill="#A73F12" d="M28.481,22.242c0,0-2.333-1.333-2.5-5.833c-0.167-4.5,0-5.333,1.25-5.667
	c1.25-0.333-0.917-7.333,6.083-7.5s14.667,0,14.667,0s5.25-0.667,5.5,6.583c0,0,1.5-0.75,1.25,5.083s-1.917,6.667-1.917,6.667
	l0.75,59c0,0-0.333,6.917,6.417,13.75c6.75,6.833,15.917,17.417,16.667,32.583s0,169.917,0,169.917s1,12.583-18.583,15.083
	s-39.25,0-39.25,0s-12.667-2.25-14.75-16.833c-0.25-6,0-161,0-161s-2.417-21.25,17.667-39.833c0,0,4.75-5.5,5.333-13.833
	S28.481,22.242,28.481,22.242z"/>
</svg>
