<?xml version="1.0" encoding="utf-8"?>
<!-- Generator: Adobe Illustrator 17.0.0, SVG Export Plug-In . SVG Version: 6.00 Build 0)  -->
<!DOCTYPE svg PUBLIC "-//W3C//DTD SVG 1.1//EN" "http://www.w3.org/Graphics/SVG/1.1/DTD/svg11.dtd">
<svg version="1.1" id="Layer_1" xmlns="http://www.w3.org/2000/svg" xmlns:xlink="http://www.w3.org/1999/xlink" x="0px" y="0px"
	 width="89.61px" height="293.507px" viewBox="0 0 89.61 293.507" enable-background="new 0 0 89.61 293.507" xml:space="preserve">
<path id="RichWhite" fill="#DAB153" d="M33.162,21.808c0,0-0.448-1.208-1.031-1.458c-0.583-0.25-0.99-2.188-0.99-2.188V11.87
	c0,0,0.354-0.75,1.01-1.167c0,0,0.74-0.75,0.573-2.042c0,0-1.187-3.833,4.896-4.375s13.073-0.583,18.198,0.625
	c0,0,3.516,0.583,2.474,4.25c0,0-0.034,0.417,1.008,1.083c0,0,0.421,0.042,0.379,1.708c0,0,0.085,5.375-0.206,7.75
	c-0.292,0.875-0.957,0.875-1.249,1.875l1.334,48.667c0,0,0.709,19.625,9.334,41s16.25,36.5,16.75,65.375s0,99.625,0,99.625
	s-0.125,9.25-1.875,10.25s-4,4.375-34.875,4.125s-39.375-3.125-39.375-3.125s-3.75-0.125-4.125-6.25s0-106.5,0-106.5
	s0-25.375,17.25-63.375c3.75-7,8.75-27.875,9.125-41.625s1.625-43.625,1.625-47.375"/>
</svg>
