<?xml version="1.0" encoding="utf-8"?>
<!-- Generator: Adobe Illustrator 17.0.0, SVG Export Plug-In . SVG Version: 6.00 Build 0)  -->
<!DOCTYPE svg PUBLIC "-//W3C//DTD SVG 1.1//EN" "http://www.w3.org/Graphics/SVG/1.1/DTD/svg11.dtd">
<svg version="1.1" id="Layer_1" xmlns="http://www.w3.org/2000/svg" xmlns:xlink="http://www.w3.org/1999/xlink" x="0px" y="0px"
	 width="129.87px" height="87.013px" viewBox="0 0 129.87 87.013" enable-background="new 0 0 129.87 87.013" xml:space="preserve">
<g>
	<path fill="#722D11" d="M60.779,43.277c0-16.761-13.408-30.346-29.939-30.346v-1.287c0,0,64.128,0,66.428,0
		c15.474,0,28.017,14.163,28.017,31.633c0,17.464-12.543,31.629-28.017,31.629c-2.299,0-66.428,0-66.428,0v-1.29
		C47.371,73.616,60.779,60.033,60.779,43.277z"/>
	<path fill="#A3381F" d="M6.024,43.277c0,15.308,11.109,27.728,24.815,27.728c13.703,0,24.805-12.42,24.805-27.728
		c0-15.318-11.102-27.731-24.805-27.731C17.133,15.546,6.024,27.959,6.024,43.277z M34.519,47.334c0-2.248,1.815-4.056,4.053-4.056
		c2.245,0,4.053,1.809,4.053,4.056c0,2.231-1.808,4.05-4.053,4.05C36.334,51.383,34.519,49.564,34.519,47.334z M34.519,25.883
		c0-1.427,1.157-2.579,2.587-2.579c1.424,0,2.577,1.152,2.577,2.579c0,1.424-1.153,2.583-2.577,2.583
		C35.675,28.466,34.519,27.307,34.519,25.883z M23.461,51.678c0-1.011,0.827-1.834,1.85-1.834c1.019,0,1.84,0.823,1.84,1.834
		c0,1.024-0.82,1.845-1.84,1.845C24.288,53.523,23.461,52.703,23.461,51.678z M19.775,36.57c0-2.033,1.658-3.684,3.686-3.684
		c2.045,0,3.689,1.651,3.689,3.684c0,2.035-1.644,3.689-3.689,3.689C21.433,40.259,19.775,38.605,19.775,36.57z M10.925,51.754
		c0-2.445,1.983-4.42,4.43-4.42c2.44,0,4.42,1.975,4.42,4.42c0,2.438-1.98,4.42-4.42,4.42
		C12.908,56.174,10.925,54.192,10.925,51.754z"/>
</g>
</svg>
