<?xml version="1.0" encoding="utf-8"?>
<!-- Generator: Adobe Illustrator 17.0.0, SVG Export Plug-In . SVG Version: 6.00 Build 0)  -->
<!DOCTYPE svg PUBLIC "-//W3C//DTD SVG 1.1//EN" "http://www.w3.org/Graphics/SVG/1.1/DTD/svg11.dtd">
<svg version="1.1" id="Layer_1" xmlns="http://www.w3.org/2000/svg" xmlns:xlink="http://www.w3.org/1999/xlink" x="0px" y="0px"
	 width="88.961px" height="308.442px" viewBox="0 0 88.961 308.442" enable-background="new 0 0 88.961 308.442"
	 xml:space="preserve">
<path id="Sparkling" fill="#7EB9AB" d="M31.717,48.763c0,0,0.875-5.625-2.125-7.5c0,0-0.75-1.625-0.75-6.5
	c0,0-0.006-1.25,1.497-4.375s0.503-12,0.503-12s-1.5-0.792-1.333-4.542s1.583-8.667,13.75-9.833s16.75,4.917,16.917,7.75
	c0.167,2.833,0.167,5.833-1.167,8s0.167,11.75,0.167,11.75s1.833,1.25,1.583,6s-3,3.75-2.75,7.333
	c0.25,3.583,0.833,35.917,6.5,58.25s13.167,40.167,13.167,40.167s6.5,12.917,7.583,47.5s0,98.583,0,98.583s-0.167,6.667-9.5,10.75
	c-9.333,4.083-31.167,5.25-31.75,5.167c-0.583-0.083-21.333,0.75-33.75-7.5c-3-3.333-5.917-7.167-6.5-13.75
	c-0.583-6.583,0.667-94.917,0.667-94.917s0-22.25,7.833-45.417s11.167-33.5,13.917-44.5S30.925,61.68,31.717,48.763z"/>
</svg>
