<?xml version="1.0" encoding="utf-8"?>
<!-- Generator: Adobe Illustrator 17.0.0, SVG Export Plug-In . SVG Version: 6.00 Build 0)  -->
<!DOCTYPE svg PUBLIC "-//W3C//DTD SVG 1.1//EN" "http://www.w3.org/Graphics/SVG/1.1/DTD/svg11.dtd">
<svg version="1.1" id="Layer_1" xmlns="http://www.w3.org/2000/svg" xmlns:xlink="http://www.w3.org/1999/xlink" x="0px" y="0px"
	 width="131px" height="83.766px" viewBox="-14.526 0 131 83.766" enable-background="new -14.526 0 131 83.766"
	 xml:space="preserve">
<g>
	<g>
		<path fill="#933E21" d="M83.891,68.652c-0.321,0.025-0.771,0.046-1.333,0.046c-1.619,0-10.095-0.212-17.975-4.376
			c-13.918-7.357-26.164-10.784-38.54-10.784c-0.744,0-1.491,0.012-2.243,0.037c-1.152,0.039-2.288,0.059-3.399,0.059
			c-3.413,0-10.455,0-15.659-2.548l0.022,8.938c0.003,1.649,0.904,3.172,2.346,3.971c3.311,1.832,9.609,2.276,16.481,2.046
			c15.796-0.528,29.933,4.08,43.903,11.466c6.603,3.49,14.18,3.763,15.908,3.627c3.627-0.289,9.476-0.811,13.185-3.957
			c1.016-0.866,1.603-2.135,1.603-3.47v-12.56C94.508,65.534,89.497,68.205,83.891,68.652z"/>
		<path fill="#933E21" d="M20.403,47.401c1.044,0,2.11-0.02,3.19-0.055c0.822-0.027,1.639-0.041,2.451-0.041
			c14.814,0,28.208,4.506,41.452,11.507c5.824,3.078,12.405,3.654,15.062,3.654c0.356,0,0.642-0.011,0.846-0.027
			c14.299-1.138,19.669-21.783,10.504-37.773C89.487,16.95,78.006,4.502,64.83,3.245c-0.624-0.059-1.363-0.104-2.185-0.104
			c-3.473,0-8.449,0.8-12.683,4.691C47.556,10.04,36.72,16.786,33.75,17.48C15.502,21.744,2.527,32.984,4.77,42.582
			C5.625,46.229,12.306,47.401,20.403,47.401z M20.352,33.378c1.013-0.177,19.843-3.446,32.425-5.421
			c3.04-0.478,5.368-2.95,5.651-6.016l0.657-7.139c0.21-2.278,2.246-3.944,4.498-3.737c2.273,0.21,3.947,2.223,3.737,4.496
			l-0.642,6.953c-0.353,3.83,1.016,7.618,3.734,10.337l10.413,10.413c1.616,1.614,1.616,4.233,0,5.845
			c-0.806,0.808-1.865,1.211-2.924,1.211c-1.056,0-2.115-0.403-2.921-1.211L62.131,36.263c-1.51-1.511-3.661-2.214-5.773-1.891
			c-12.439,1.903-34.561,5.745-34.826,5.792c-0.201,0.035-0.399,0.052-0.596,0.052c-1.64,0-3.098-1.181-3.387-2.854
			C17.224,35.488,18.478,33.703,20.352,33.378z"/>
	</g>
</g>
</svg>
