<?xml version="1.0" encoding="utf-8"?>
<!-- Generator: Adobe Illustrator 17.0.0, SVG Export Plug-In . SVG Version: 6.00 Build 0)  -->
<!DOCTYPE svg PUBLIC "-//W3C//DTD SVG 1.1//EN" "http://www.w3.org/Graphics/SVG/1.1/DTD/svg11.dtd">
<svg version="1.1" id="Layer_1" xmlns="http://www.w3.org/2000/svg" xmlns:xlink="http://www.w3.org/1999/xlink" x="0px" y="0px"
	 width="83.766px" height="323.377px" viewBox="0 0 83.766 323.377" enable-background="new 0 0 83.766 323.377"
	 xml:space="preserve">
<path id="SweetWhite" fill="#ACB780" d="M31.059,22.972c0,0,0.5-7.667-1-10.167c-0.417-1.083-0.5-4,0-4.667
	c0.5-0.667,2.25-2.667,10.75-2.75s12.917,1.417,13.083,2.417s0.417,5.083-0.333,5.25c-0.5,1-0.5,9.917-0.5,9.917
	s1.083,53.917,5,66.833c2.75,10.667,10.75,47,10.75,47s9.083,37.417,8.667,55.5c-0.417,18.083,0.167,110.833,0.167,110.833
	s0.083,13.75-17.5,14.667s-18.167,0.833-18.167,0.833s-18-0.333-21.833-0.833s-11-2.25-13.417-13.917
	c-0.833-11.167,0-112.917,0-112.917s2.75-40.25,8.917-55.417c2.667-11.583,9.833-35.583,10.75-46c0,0,1.583-9.542,2.708-22.792
	S31.059,22.972,31.059,22.972z"/>
</svg>
